<svg xmlns="http://www.w3.org/2000/svg" xmlns:xlink="http://www.w3.org/1999/xlink" id="Layer_1" viewBox="0 0 512 512"><defs><style>.cls-1{fill:url(#linear-gradient);}.cls-1,.cls-2{stroke-width:0px;}.cls-2{fill:#fff;}</style><linearGradient id="linear-gradient" x1="256" y1="0" x2="256" y2="512" gradientUnits="userSpaceOnUse"><stop offset="0" stop-color="#f2b540"/><stop offset="1" stop-color="#db5228"/></linearGradient></defs><circle class="cls-1" cx="256" cy="256" r="256"/><path class="cls-2" d="M256,215c-9.2,0-17.4-4.8-22-12.7l-62.1-107.6h168.3l-62.1,107.6c-4.6,8-12.8,12.7-22,12.7Z"/><path class="cls-2" d="M313.5,248.2c-9.2,0-17.4-4.8-22-12.7-4.6-8-4.6-17.5,0-25.4l62.1-107.6,84.1,145.7h-124.3Z"/><path class="cls-2" d="M171.9,417.3l62.1-107.6c4.6-8,12.8-12.7,22-12.7s17.4,4.8,22,12.7l62.1,107.6h-168.3Z"/><path class="cls-2" d="M291.5,301.9c-4.6-8-4.6-17.5,0-25.4,4.6-8,12.8-12.7,22-12.7h124.3l-84.1,145.7-62.1-107.6Z"/><path class="cls-2" d="M74.2,248.2l84.1-145.7,62.1,107.6c4.6,8,4.6,17.5,0,25.4-4.6,8-12.8,12.7-22,12.7h-124.3Z"/><path class="cls-2" d="M74.2,263.8h124.3c9.2,0,17.4,4.8,22,12.7,4.6,8,4.6,17.5,0,25.4l-62.1,107.6-84.1-145.7Z"/></svg>