<svg width="303" height="375" viewBox="0 0 303 375" fill="none" xmlns="http://www.w3.org/2000/svg">
<path d="M215.516 2.06348C215.912 1.97211 216.27 1.89278 216.588 1.82458C216.001 34.5704 199.63 52.9337 183.261 63.1926C174.899 68.4337 166.524 71.5626 160.234 73.3803C157.091 74.2884 154.476 74.8671 152.653 75.218C152.235 75.2985 151.859 75.367 151.527 75.4247C152.115 44.0348 168.469 25.6525 184.873 15.0313C193.246 9.61015 201.63 6.21709 207.927 4.17999C211.072 3.16225 213.69 2.48515 215.516 2.06348Z" fill="url(#paint0_linear_40_192)" stroke="#3C1030" stroke-width="3"/>
<mask id="path-2-inside-1_40_192" fill="white">
<path fill-rule="evenodd" clip-rule="evenodd" d="M172.755 86.6167C181.734 85.2341 190.5 84.0796 194.693 84.8066H194.698C201.018 85.9058 206.976 87.34 212.588 89.0899C271.537 107.222 302.084 160.304 302.084 225.643C302.084 294.756 247.401 365.2 184.573 374.066C177.87 375.011 171.084 375.254 164.256 374.726C155.453 374.037 146.625 374.037 137.828 374.726C131 375.254 124.209 375.011 117.511 374.066C103.713 372.121 90.316 367.184 77.7946 359.966C77.3827 359.742 76.972 359.509 76.5625 359.266C32.6927 333.316 0 279.082 0 225.642C0 153.298 36.724 97.1023 107.385 84.8066C111.578 84.0796 120.349 85.2341 129.323 86.6167C143.688 88.8355 158.391 88.8355 172.755 86.6167Z"/>
</mask>
<path fill-rule="evenodd" clip-rule="evenodd" d="M172.755 86.6167C181.734 85.2341 190.5 84.0796 194.693 84.8066H194.698C201.018 85.9058 206.976 87.34 212.588 89.0899C271.537 107.222 302.084 160.304 302.084 225.643C302.084 294.756 247.401 365.2 184.573 374.066C177.87 375.011 171.084 375.254 164.256 374.726C155.453 374.037 146.625 374.037 137.828 374.726C131 375.254 124.209 375.011 117.511 374.066C103.713 372.121 90.316 367.184 77.7946 359.966C77.3827 359.742 76.972 359.509 76.5625 359.266C32.6927 333.316 0 279.082 0 225.642C0 153.298 36.724 97.1023 107.385 84.8066C111.578 84.0796 120.349 85.2341 129.323 86.6167C143.688 88.8355 158.391 88.8355 172.755 86.6167Z" fill="url(#paint1_linear_40_192)"/>
<path d="M194.693 84.8066L194.18 87.7625L194.435 87.8066H194.693V84.8066ZM172.755 86.6167L172.299 83.6517L172.297 83.6519L172.755 86.6167ZM194.698 84.8066L195.212 81.8509L194.957 81.8066H194.698V84.8066ZM212.588 89.0899L211.695 91.9539L211.706 91.9573L212.588 89.0899ZM184.573 374.066L184.992 377.037L184.992 377.037L184.573 374.066ZM164.256 374.726L164.021 377.717L164.025 377.717L164.256 374.726ZM137.828 374.726L138.059 377.717L138.063 377.717L137.828 374.726ZM117.511 374.066L117.93 371.095L117.93 371.095L117.511 374.066ZM77.7946 359.966L79.2928 357.367L79.262 357.349L79.2307 357.332L77.7946 359.966ZM76.5625 359.266L78.0901 356.684L78.0899 356.684L76.5625 359.266ZM107.385 84.8066L106.873 81.8507L106.871 81.851L107.385 84.8066ZM129.323 86.6167L129.781 83.6519L129.78 83.6517L129.323 86.6167ZM195.205 81.8507C192.669 81.411 189.067 81.564 185.231 81.9345C181.303 82.3137 176.797 82.9591 172.299 83.6517L173.212 89.5818C177.693 88.8918 182.059 88.2686 185.807 87.9067C189.647 87.5359 192.523 87.4752 194.18 87.7625L195.205 81.8507ZM194.698 81.8066H194.693V87.8066H194.698V81.8066ZM213.481 86.2259C207.738 84.435 201.652 82.9712 195.212 81.8509L194.184 87.7622C200.383 88.8405 206.215 90.245 211.695 91.9539L213.481 86.2259ZM305.084 225.643C305.084 159.361 274.003 104.842 213.47 86.2225L211.706 91.9573C269.072 109.602 299.084 161.246 299.084 225.643H305.084ZM184.992 377.037C217.361 372.469 247.377 352.101 269.247 324.302C291.128 296.491 305.084 260.963 305.084 225.643H299.084C299.084 259.436 285.699 293.687 264.531 320.592C243.353 347.511 214.614 366.797 184.154 371.095L184.992 377.037ZM164.025 377.717C171.076 378.262 178.081 378.011 184.992 377.037L184.154 371.095C177.659 372.011 171.091 372.245 164.487 371.735L164.025 377.717ZM138.063 377.717C146.704 377.041 155.375 377.04 164.021 377.717L164.49 371.735C155.532 371.034 146.547 371.034 137.594 371.736L138.063 377.717ZM117.091 377.037C123.998 378.011 131.008 378.262 138.059 377.717L137.597 371.735C130.993 372.245 124.419 372.011 117.93 371.095L117.091 377.037ZM76.2965 362.565C89.1043 369.948 102.864 375.031 117.092 377.037L117.93 371.095C104.561 369.211 91.5277 364.42 79.2928 357.367L76.2965 362.565ZM75.0349 361.848C75.4748 362.108 75.9161 362.359 76.3586 362.6L79.2307 357.332C78.8494 357.124 78.4692 356.909 78.0901 356.684L75.0349 361.848ZM-3 225.642C-3 280.182 30.2864 335.378 75.0351 361.848L78.0899 356.684C35.0991 331.254 3 277.983 3 225.642H-3ZM106.871 81.851C70.8179 88.1246 43.2702 105.645 24.7732 130.935C6.30643 156.184 -3 188.978 -3 225.642H3C3 189.962 12.0555 158.487 29.6161 134.477C47.1464 110.509 73.2915 93.7843 107.9 87.7621L106.871 81.851ZM129.78 83.6517C125.284 82.9591 120.778 82.3137 116.849 81.9345C113.013 81.564 109.409 81.411 106.873 81.8507L107.898 87.7625C109.555 87.4752 112.433 87.5359 116.273 87.9067C120.022 88.2686 124.388 88.8918 128.866 89.5817L129.78 83.6517ZM172.297 83.6519C158.236 85.8237 143.842 85.8237 129.781 83.6519L128.865 89.5816C143.533 91.8472 158.545 91.8472 173.213 89.5816L172.297 83.6519Z" fill="#3C1030" mask="url(#path-2-inside-1_40_192)"/>
<path d="M98.0371 123.735C98.4902 124.063 98.9017 124.443 99.2663 124.88C99.6361 125.318 99.959 125.813 100.235 126.354C100.516 126.901 100.751 127.5 100.938 128.151C101.126 128.802 101.271 129.5 101.365 130.245C101.459 130.995 101.511 131.787 101.511 132.62C101.516 133.459 101.469 134.339 101.381 135.255C101.287 136.172 101.152 137.13 100.969 138.12C100.782 139.115 100.553 140.136 100.282 141.193C100.006 142.245 99.6882 143.328 99.3236 144.438C98.9642 145.542 98.5579 146.672 98.11 147.823C97.6621 148.974 97.1725 150.141 96.6465 151.323C96.1204 152.505 95.5527 153.698 94.9486 154.901C94.3496 156.104 93.709 157.308 93.0371 158.521C92.3652 159.729 91.6621 160.943 90.9225 162.151C90.1882 163.354 89.4225 164.558 88.6309 165.75C87.8392 166.943 87.0267 168.125 86.1882 169.292C85.3444 170.459 84.485 171.604 83.6048 172.735C82.7246 173.865 81.8288 174.969 80.9173 176.047C80.0059 177.13 79.084 178.183 78.1465 179.203C77.2142 180.224 76.2715 181.214 75.3236 182.167C74.3704 183.12 73.4225 184.037 72.4694 184.912C71.5111 185.787 70.5632 186.62 69.6152 187.406C68.6621 188.198 67.7194 188.943 66.7871 189.636C65.8496 190.334 64.9225 190.979 64.0111 191.573C63.0996 192.167 62.1986 192.709 61.3184 193.198C60.4382 193.688 59.5736 194.12 58.7298 194.5C57.8913 194.875 57.0684 195.198 56.2767 195.459C55.4798 195.724 54.7142 195.927 53.9746 196.073C53.2402 196.219 52.5319 196.308 51.8548 196.334C51.1777 196.36 50.5371 196.328 49.9277 196.24C49.3236 196.146 48.7559 195.995 48.2194 195.787C47.6882 195.578 47.1986 195.313 46.7454 194.985C46.2923 194.662 45.8861 194.281 45.5163 193.839C45.1517 193.401 44.8288 192.912 44.5475 192.365C44.2715 191.818 44.0371 191.219 43.8444 190.568C43.6569 189.922 43.5163 189.219 43.4225 188.474C43.3236 187.729 43.2767 186.938 43.2715 186.099C43.2715 185.261 43.3132 184.386 43.4069 183.464C43.4954 182.547 43.6361 181.594 43.8184 180.599C44.0007 179.61 44.2298 178.584 44.5059 177.531C44.7819 176.474 45.0996 175.396 45.459 174.287C45.8236 173.177 46.2298 172.047 46.6777 170.896C47.1257 169.745 47.61 168.578 48.1413 167.396C48.6673 166.214 49.2298 165.021 49.834 163.818C50.4381 162.62 51.0788 161.412 51.7507 160.198C52.4225 158.99 53.1257 157.781 53.86 156.573C54.5996 155.365 55.36 154.162 56.1517 152.969C56.9434 151.776 57.7611 150.599 58.5996 149.433C59.4382 148.266 60.3027 147.115 61.1829 145.985C62.0579 144.86 62.959 143.75 63.8704 142.672C64.7819 141.589 65.7038 140.542 66.6413 139.516C67.5736 138.495 68.5163 137.505 69.4642 136.552C70.4121 135.599 71.3652 134.688 72.3184 133.808C73.2715 132.933 74.2246 132.099 75.1725 131.313C76.1204 130.521 77.0632 129.781 78.0007 129.084C78.9382 128.391 79.86 127.745 80.7767 127.146C81.6882 126.552 82.584 126.011 83.4694 125.521C84.3496 125.031 85.2142 124.599 86.0527 124.224C86.8965 123.844 87.7142 123.526 88.5111 123.261C89.3027 123 90.0684 122.792 90.8079 122.646C91.5475 122.5 92.2559 122.417 92.9329 122.386C93.61 122.36 94.2507 122.391 94.8548 122.485C95.4642 122.573 96.0319 122.724 96.5632 122.933C97.0944 123.141 97.5892 123.412 98.0371 123.735Z" fill="#B890AD"/>
<path d="M146.475 117.982L146.187 118.92L145.211 119.031L142.102 119.386L139.831 119.644L140.498 117.458C140.497 117.458 140.498 117.456 140.499 117.452C140.505 117.431 140.526 117.358 140.564 117.218C140.607 117.059 140.669 116.83 140.746 116.536C140.9 115.948 141.118 115.1 141.382 114.025C141.91 111.876 142.623 108.817 143.388 105.1C144.92 97.6617 146.658 87.6071 147.546 76.9355C148.436 66.2516 148.467 55.0188 146.624 45.1985C144.777 35.354 141.088 27.1482 134.728 22.2274L134.728 22.2271C127.744 16.8196 117.765 15.5588 103.81 18.8754L102.342 19.2244L102.002 17.7539L100.549 11.4674L100.213 10.0154L101.663 9.67037C118.75 5.60457 132.596 7.20781 142.491 14.8652L142.491 14.8654C150.426 21.0074 154.584 30.4807 156.43 41.0435C158.278 51.612 157.845 63.4417 156.448 74.5499C153.848 95.2208 147.865 113.689 146.662 117.401C146.572 117.68 146.508 117.875 146.475 117.982Z" fill="#D9D9D9" stroke="#3C1030" stroke-width="3"/>
<path d="M117.946 96.1496L115.095 95.2145L113.225 100.916L116.076 101.851L117.946 96.1496ZM118.742 96.4108L117.946 96.1496L116.076 101.851L116.872 102.112L118.742 96.4108ZM144.698 121.827C140.465 109.782 130.873 100.39 118.742 96.4108L116.872 102.112C127.231 105.51 135.423 113.531 139.038 123.816L144.698 121.827Z" fill="#601A4D"/>
<path d="M137.323 129.113L138.118 127.884C145.157 117.003 155.011 108.232 166.632 102.5V102.5" stroke="#601A4D" stroke-width="6"/>
<circle cx="208.011" cy="236" r="28.5" fill="url(#paint2_linear_40_192)" stroke="#3C1030" stroke-width="3"/>
<circle cx="96.0107" cy="236" r="28.5" fill="url(#paint3_linear_40_192)" stroke="#3C1030" stroke-width="3"/>
<defs>
<linearGradient id="paint0_linear_40_192" x1="218.011" y1="7.00013" x2="162.511" y2="77.0001" gradientUnits="userSpaceOnUse">
<stop stop-color="#99FAFF"/>
<stop offset="1" stop-color="#29A7DA"/>
</linearGradient>
<linearGradient id="paint1_linear_40_192" x1="270.011" y1="360.449" x2="45.7329" y2="84.5304" gradientUnits="userSpaceOnUse">
<stop stop-color="#2C0B23"/>
<stop offset="1" stop-color="#932877"/>
</linearGradient>
<linearGradient id="paint2_linear_40_192" x1="208.011" y1="206" x2="208.011" y2="266" gradientUnits="userSpaceOnUse">
<stop stop-color="#94F6FE"/>
<stop offset="1" stop-color="#2DAADB"/>
</linearGradient>
<linearGradient id="paint3_linear_40_192" x1="96.0107" y1="206" x2="96.0107" y2="266" gradientUnits="userSpaceOnUse">
<stop stop-color="#94F6FE"/>
<stop offset="1" stop-color="#2DAADB"/>
</linearGradient>
</defs>
</svg>
