<svg width="303" height="375" viewBox="0 0 303 375" fill="none" xmlns="http://www.w3.org/2000/svg">
<path d="M217.435 0.630463C217.494 0.618958 217.55 0.608231 217.603 0.598259C217.407 34.5199 200.599 53.5061 183.792 64.0398C175.33 69.3433 166.864 72.5052 160.512 74.3409C157.336 75.2585 154.691 75.844 152.842 76.1999C151.918 76.3778 151.192 76.4983 150.699 76.5741C150.633 76.5844 150.57 76.5938 150.512 76.6025C150.708 44.0744 167.51 25.0817 184.329 14.1918C192.795 8.71069 201.264 5.2843 207.619 3.22842C210.795 2.20074 213.441 1.51625 215.291 1.089C216.216 0.875397 216.942 0.726135 217.435 0.630463Z" fill="url(#paint0_linear_40_180)" stroke="#D9D9D9"/>
<path fill-rule="evenodd" clip-rule="evenodd" d="M172.755 86.6166C181.734 85.234 190.5 84.0795 194.693 84.8064H194.698C201.018 85.9057 206.976 87.3399 212.588 89.0898C271.537 107.222 302.084 160.304 302.084 225.642C302.084 294.756 247.401 365.2 184.573 374.066C177.87 375.011 171.084 375.254 164.256 374.726C155.453 374.037 146.625 374.037 137.828 374.726C131 375.254 124.209 375.011 117.511 374.066C103.713 372.12 90.316 367.184 77.7946 359.966C77.3827 359.742 76.972 359.508 76.5625 359.266C32.6927 333.316 0 279.082 0 225.642C0 153.298 36.724 97.1022 107.385 84.8064C111.578 84.0795 120.349 85.234 129.323 86.6166C143.688 88.8353 158.391 88.8353 172.755 86.6166Z" fill="url(#paint1_linear_40_180)"/>
<path d="M98.0371 123.734C98.4902 124.063 98.9017 124.443 99.2663 124.88C99.6361 125.318 99.959 125.813 100.235 126.354C100.516 126.901 100.751 127.5 100.938 128.151C101.126 128.802 101.271 129.5 101.365 130.245C101.459 130.995 101.511 131.787 101.511 132.62C101.516 133.458 101.469 134.339 101.381 135.255C101.287 136.172 101.152 137.13 100.969 138.12C100.782 139.115 100.553 140.136 100.282 141.193C100.006 142.245 99.6882 143.328 99.3236 144.438C98.9642 145.542 98.5579 146.672 98.11 147.823C97.6621 148.974 97.1725 150.141 96.6465 151.323C96.1204 152.505 95.5527 153.698 94.9486 154.901C94.3496 156.104 93.709 157.307 93.0371 158.521C92.3652 159.729 91.6621 160.943 90.9225 162.151C90.1882 163.354 89.4225 164.557 88.6309 165.75C87.8392 166.943 87.0267 168.125 86.1882 169.292C85.3444 170.458 84.485 171.604 83.6048 172.734C82.7246 173.865 81.8288 174.969 80.9173 176.047C80.0059 177.13 79.084 178.182 78.1465 179.203C77.2142 180.224 76.2715 181.214 75.3236 182.167C74.3704 183.12 73.4225 184.037 72.4694 184.912C71.5111 185.787 70.5632 186.62 69.6152 187.406C68.6621 188.198 67.7194 188.943 66.7871 189.636C65.8496 190.333 64.9225 190.979 64.0111 191.573C63.0996 192.167 62.1986 192.708 61.3184 193.198C60.4382 193.688 59.5736 194.12 58.7298 194.5C57.8913 194.875 57.0684 195.198 56.2767 195.458C55.4798 195.724 54.7142 195.927 53.9746 196.073C53.2402 196.219 52.5319 196.307 51.8548 196.333C51.1777 196.359 50.5371 196.328 49.9277 196.24C49.3236 196.146 48.7559 195.995 48.2194 195.787C47.6882 195.578 47.1986 195.313 46.7454 194.984C46.2923 194.662 45.8861 194.281 45.5163 193.839C45.1517 193.401 44.8288 192.912 44.5475 192.365C44.2715 191.818 44.0371 191.219 43.8444 190.568C43.6569 189.922 43.5163 189.219 43.4225 188.474C43.3236 187.729 43.2767 186.938 43.2715 186.099C43.2715 185.261 43.3132 184.386 43.4069 183.464C43.4954 182.547 43.6361 181.594 43.8184 180.599C44.0007 179.609 44.2298 178.583 44.5059 177.531C44.7819 176.474 45.0996 175.396 45.459 174.287C45.8236 173.177 46.2298 172.047 46.6777 170.896C47.1257 169.745 47.61 168.578 48.1413 167.396C48.6673 166.214 49.2298 165.021 49.834 163.818C50.4381 162.62 51.0788 161.412 51.7507 160.198C52.4225 158.99 53.1257 157.781 53.86 156.573C54.5996 155.365 55.36 154.162 56.1517 152.969C56.9434 151.776 57.7611 150.599 58.5996 149.432C59.4382 148.266 60.3027 147.115 61.1829 145.984C62.0579 144.859 62.959 143.75 63.8704 142.672C64.7819 141.589 65.7038 140.542 66.6413 139.516C67.5736 138.495 68.5163 137.505 69.4642 136.552C70.4121 135.599 71.3652 134.688 72.3184 133.807C73.2715 132.932 74.2246 132.099 75.1725 131.313C76.1204 130.521 77.0632 129.781 78.0007 129.083C78.9382 128.391 79.86 127.745 80.7767 127.146C81.6882 126.552 82.584 126.011 83.4694 125.521C84.3496 125.031 85.2142 124.599 86.0527 124.224C86.8965 123.844 87.7142 123.526 88.5111 123.261C89.3027 123 90.0684 122.792 90.8079 122.646C91.5475 122.5 92.2559 122.417 92.9329 122.386C93.61 122.359 94.2507 122.391 94.8548 122.484C95.4642 122.573 96.0319 122.724 96.5632 122.932C97.0944 123.141 97.5892 123.412 98.0371 123.734Z" fill="#B890AD"/>
<path d="M144.042 121.541C145.005 118.411 170.682 43.3587 140.573 20.0514C131.177 12.7805 117.865 11.1191 101.01 15.1295L102.464 21.416C116.62 18.0514 127.146 19.2337 134.646 25.041C161.76 46.0201 141.156 121.161 140.932 121.895L144.042 121.541Z" fill="#D9D9D9"/>
<path d="M119.563 99.0778L117.64 98.5255L116.536 102.37L118.458 102.922L119.563 99.0778ZM120.288 99.2861L119.563 99.0778L118.458 102.922L119.183 103.131L120.288 99.2861ZM143.737 122.275C140.3 111.147 131.482 102.502 120.288 99.2861L119.183 103.131C129.08 105.974 136.876 113.617 139.915 123.456L143.737 122.275Z" fill="#601A4D"/>
<path d="M139.163 127.273L139.849 126.178C146.309 115.87 155.61 107.648 166.632 102.5V102.5" stroke="#601A4D" stroke-width="4"/>
<circle cx="207" cy="236" r="29" fill="url(#paint2_linear_40_180)" stroke="#D9D9D9" stroke-width="2"/>
<circle cx="95" cy="236" r="29" fill="url(#paint3_linear_40_180)" stroke="#D9D9D9" stroke-width="2"/>
<defs>
<linearGradient id="paint0_linear_40_180" x1="218.011" y1="7" x2="162.511" y2="77" gradientUnits="userSpaceOnUse">
<stop stop-color="#99FAFF"/>
<stop offset="1" stop-color="#29A7DA"/>
</linearGradient>
<linearGradient id="paint1_linear_40_180" x1="270.011" y1="360.449" x2="45.7329" y2="84.5302" gradientUnits="userSpaceOnUse">
<stop stop-color="#2C0B23"/>
<stop offset="1" stop-color="#932877"/>
</linearGradient>
<linearGradient id="paint2_linear_40_180" x1="207" y1="206" x2="207" y2="266" gradientUnits="userSpaceOnUse">
<stop stop-color="#94F6FE"/>
<stop offset="1" stop-color="#2DAADB"/>
</linearGradient>
<linearGradient id="paint3_linear_40_180" x1="95" y1="206" x2="95" y2="266" gradientUnits="userSpaceOnUse">
<stop stop-color="#94F6FE"/>
<stop offset="1" stop-color="#2DAADB"/>
</linearGradient>
</defs>
</svg>
